<?xml version="1.0" encoding="UTF-8"?>
<!DOCTYPE svg PUBLIC "-//W3C//DTD SVG 1.1//EN"
        "http://www.w3.org/Graphics/SVG/1.1/DTD/svg11.dtd">
<svg width="200" height="200" xmlns="http://www.w3.org/2000/svg">

    <filter id="monochrome" color-interpolation-filters="sRGB"
            x="0" y="0" height="100%" width="100%">
        <feColorMatrix type="matrix"
                       values="0.39 0.769 0.189 0  0
          0.349 0.686 0.168 0  0
          0.272 0.534 0.131 0  0
            0  0 0 1  0" />
        <!-- https://stackoverflow.com/a/41994089 -->
    </filter>

    <linearGradient id="g" x1="0" x2="0" y1="0" y2="1">
        <stop offset="0%" stop-color="lime" />
        <stop offset="100%" stop-color="pink" />
    </linearGradient>

    <circle cx="100" cy="100" r="90" fill="url(#g)" stroke="red"></circle>

    <path d="
    M50 50
    l-10 90
    l10 0
    l10 -80
    l10 80
    l10 0
    l10 -80
    l10 80
    l10 0
    l-10 -90
    l-15 0
    l-10 75
    l-10 -75
    z
  "
          fill="yellow"
          stroke="black"
    ></path>
    <path d="
    M120 50
    C180 50 140 100 130 90
    C180 90 140 150 120 140
    Z

    M130 130
    c20 0 20 -30 0 -30
    Z

    M130 85
    c20 0 20 -30 0 -30
    Z
  "
          fill="yellow"
          stroke="black"
          filter="url(#monochrome)"
    ></path>
</svg>